<svg width="312" height="246" xmlns="http://www.w3.org/2000/svg" xmlns:xlink="http://www.w3.org/1999/xlink" xml:space="preserve" overflow="hidden"><defs><clipPath id="clip0"><rect x="484" y="230" width="312" height="246"/></clipPath><clipPath id="clip1"><rect x="484" y="230" width="312" height="246"/></clipPath><clipPath id="clip2"><rect x="485" y="231" width="310" height="245"/></clipPath><clipPath id="clip3"><rect x="485" y="231" width="310" height="245"/></clipPath><linearGradient x1="86.1789" y1="16.2257" x2="260.125" y2="132.002" gradientUnits="userSpaceOnUse" spreadMethod="pad" id="fill4"><stop offset="0" stop-color="#7303C0" stop-opacity="1"/><stop offset="0.33" stop-color="#7303C0" stop-opacity="1"/><stop offset="0.49" stop-color="#AD1CBE" stop-opacity="1"/><stop offset="0.66" stop-color="#EC38BC" stop-opacity="1"/><stop offset="0.82" stop-color="#F494DA" stop-opacity="1"/><stop offset="0.94" stop-color="#FAD5F0" stop-opacity="1"/><stop offset="1" stop-color="#FDEFF9" stop-opacity="1"/></linearGradient></defs><g clip-path="url(#clip0)" transform="translate(-484 -230)"><g clip-path="url(#clip1)"><g clip-path="url(#clip2)"><g clip-path="url(#clip3)"><g><path d="M68.9601 235.662 68.9601 241.062 64.7056 241.062 64.7056 221.97 73.7065 221.97C78.5888 221.97 81.0167 225.134 81.0167 228.817 81.0167 232.5 78.5624 235.609 73.7065 235.664L68.962 235.664 68.9601 235.662ZM68.9601 231.761 73.7047 231.761C75.7499 231.761 76.7584 230.425 76.7584 228.898 76.7584 227.371 75.7217 226.007 73.7047 226.007L68.9601 226.007 68.9601 231.761Z" fill="#FFFFFF" fill-rule="nonzero" fill-opacity="1" transform="matrix(1.00132 0 0 1 485 231)"/><path d="M103.649 241.033 100.158 241.033 96.0679 230.37 92.1131 241.033 88.622 241.033 81.5042 221.97 86.277 221.97 88.6502 228.489 90.3694 234.653 94.6522 221.97 97.4345 221.97 101.907 234.653 103.544 228.517 105.808 221.972 110.581 221.972 103.653 241.035 103.649 241.033Z" fill="#FFFFFF" fill-rule="nonzero" fill-opacity="1" transform="matrix(1.00132 0 0 1 485 231)"/><path d="M126.122 234.38 125.848 228.38 125.848 221.97 130.13 221.97 130.13 241.062 126.475 241.062 116.984 228.844 117.147 235.116 117.147 241.062 112.839 241.062 112.839 221.97 116.493 221.97 126.12 234.38 126.122 234.38Z" fill="#FFFFFF" fill-rule="nonzero" fill-opacity="1" transform="matrix(1.00132 0 0 1 485 231)"/><path d="M148.925 241.06 134.389 241.06 134.389 221.97 148.543 221.97 148.543 225.87 138.562 225.87 138.562 229.553 147.972 229.553 147.972 233.289 138.562 233.289 138.562 237.134 148.925 237.134 148.925 241.06Z" fill="#FFFFFF" fill-rule="nonzero" fill-opacity="1" transform="matrix(1.00132 0 0 1 485 231)"/><path d="M160.111 221.97C166.684 221.97 169.601 226.389 169.601 231.38 169.601 236.372 166.793 241.062 160.111 241.062L152.284 241.062 152.284 221.97 160.111 221.97ZM156.484 237.134 160.111 237.134C164.256 237.134 165.401 234.078 165.401 231.324 165.401 228.57 164.093 225.815 160.111 225.815L156.484 225.815 156.484 237.132 156.484 237.134Z" fill="#FFFFFF" fill-rule="nonzero" fill-opacity="1" transform="matrix(1.00132 0 0 1 485 231)"/><path d="M178.603 221.955 178.603 239.656 189.35 239.656 189.35 241.046 177.132 241.046 177.132 221.955 178.603 221.955Z" fill="#FFFFFF" fill-rule="nonzero" fill-opacity="1" transform="matrix(1.00132 0 0 1 485 231)"/><path d="M207.322 241.046 205.221 236.355 193.821 236.355 191.748 241.046 190.166 241.046 198.73 221.955 200.339 221.955 208.903 241.046 207.322 241.046ZM204.649 234.992 199.521 223.375 194.395 234.992 204.649 234.992Z" fill="#FFFFFF" fill-rule="nonzero" fill-opacity="1" transform="matrix(1.00132 0 0 1 485 231)"/><path d="M225.184 227.165C225.184 229.129 223.984 230.656 222.077 231.256 224.476 231.91 225.84 233.848 225.84 236.055 225.84 239.981 222.185 241.046 218.913 241.046L211.087 241.046 211.087 221.955 218.913 221.955C222.13 221.955 225.186 223.537 225.186 227.163L225.184 227.165ZM212.557 230.602 219.101 230.602C221.392 230.602 223.794 229.893 223.794 227.165 223.794 224.438 221.284 223.21 218.911 223.21L212.557 223.21 212.557 230.602ZM212.557 239.629 218.911 239.629C221.311 239.629 224.393 239.056 224.393 236.028 224.366 233.056 221.665 231.992 219.101 231.992L212.557 231.992 212.557 239.629Z" fill="#FFFFFF" fill-rule="nonzero" fill-opacity="1" transform="matrix(1.00132 0 0 1 485 231)"/><path d="M242.309 225.639C240.919 223.404 238.683 223.076 236.528 223.047 234.293 223.047 230.747 223.865 230.747 226.92 230.747 229.347 233.365 229.921 236.583 230.52 240.265 231.229 244.083 231.883 244.083 236.001 244.057 240.311 239.719 241.348 236.528 241.348 233.555 241.348 230.174 240.12 228.701 237.203L230.009 236.548C231.182 238.867 234.183 240.013 236.528 240.013 238.873 240.013 242.609 239.359 242.609 235.977 242.636 233.113 239.472 232.486 236.336 231.887 232.845 231.204 229.273 230.495 229.273 226.978 229.192 222.942 233.391 221.686 236.528 221.686 239.255 221.686 241.63 222.124 243.51 224.933L242.309 225.641 242.309 225.639Z" fill="#FFFFFF" fill-rule="nonzero" fill-opacity="1" transform="matrix(1.00132 0 0 1 485 231)"/><path d="M65.7631 254.888C65.4464 254.711 65.2013 254.462 65.0279 254.138 64.8545 253.814 64.7678 253.439 64.7678 253.013L64.7678 249.91 65.3333 249.91 65.3333 253.005C65.3333 253.323 65.3974 253.604 65.5237 253.848 65.6519 254.091 65.8291 254.279 66.0609 254.413 66.2928 254.547 66.5586 254.614 66.8621 254.614 67.1656 254.614 67.4351 254.547 67.667 254.413 67.8989 254.279 68.0798 254.089 68.208 253.848 68.3362 253.604 68.3984 253.323 68.3984 253.005L68.3984 249.91 68.9564 249.91 68.9564 253.013C68.9564 253.439 68.8696 253.814 68.6962 254.138 68.5228 254.462 68.2777 254.711 67.9611 254.888 67.6443 255.065 67.2787 255.152 66.8621 255.152 66.4455 255.152 66.0797 255.063 65.7631 254.888Z" fill="#FFFFFF" fill-rule="nonzero" fill-opacity="1" transform="matrix(1.00132 0 0 1 485 231)"/><path d="M77.071 249.914 77.6366 249.914 77.6366 255.059 77.0993 255.059 73.9815 250.862 73.9815 255.059 73.416 255.059 73.416 249.914 73.9608 249.914 77.071 254.097 77.071 249.914Z" fill="#FFFFFF" fill-rule="nonzero" fill-opacity="1" transform="matrix(1.00132 0 0 1 485 231)"/><path d="M82.1515 249.914 82.717 249.914 82.717 254.523 85.5616 254.523 85.5616 255.059 82.1496 255.059 82.1496 249.914 82.1515 249.914Z" fill="#FFFFFF" fill-rule="nonzero" fill-opacity="1" transform="matrix(1.00132 0 0 1 485 231)"/><path d="M90.3152 254.821C89.9212 254.595 89.614 254.28 89.3934 253.873 89.1729 253.466 89.0636 253.004 89.0636 252.483 89.0636 251.964 89.1729 251.502 89.3934 251.095 89.614 250.687 89.9212 250.373 90.3152 250.146 90.7092 249.92 91.1615 249.808 91.6724 249.808 92.1833 249.808 92.6356 249.922 93.0315 250.146 93.4292 250.373 93.7365 250.687 93.957 251.095 94.1776 251.502 94.2888 251.966 94.2888 252.483 94.2888 253.002 94.1795 253.466 93.957 253.873 93.7365 254.28 93.4273 254.597 93.0315 254.821 92.6337 255.048 92.1814 255.158 91.6724 255.158 91.1634 255.158 90.711 255.046 90.3152 254.821ZM92.7299 254.35C93.039 254.169 93.2803 253.916 93.4537 253.592 93.6272 253.268 93.7139 252.898 93.7139 252.481 93.7139 252.065 93.6272 251.696 93.4537 251.371 93.2803 251.047 93.039 250.797 92.7299 250.614 92.4207 250.433 92.0682 250.342 91.6705 250.342 91.2727 250.342 90.9202 250.433 90.6111 250.614 90.3019 250.795 90.0626 251.047 89.891 251.371 89.7195 251.696 89.6347 252.065 89.6347 252.481 89.6347 252.898 89.7195 253.268 89.891 253.592 90.0626 253.916 90.3019 254.167 90.6111 254.35 90.9202 254.531 91.2727 254.621 91.6705 254.621 92.0682 254.621 92.4207 254.531 92.7299 254.35Z" fill="#FFFFFF" fill-rule="nonzero" fill-opacity="1" transform="matrix(1.00132 0 0 1 485 231)"/><path d="M99.4368 254.818C99.0315 254.592 98.7167 254.277 98.4924 253.869 98.2662 253.462 98.155 253.002 98.155 252.487 98.155 251.974 98.2681 251.513 98.4924 251.105 98.7185 250.698 99.0334 250.384 99.4368 250.158 99.8397 249.932 100.3 249.82 100.814 249.82 101.177 249.82 101.518 249.886 101.837 250.018 102.155 250.15 102.438 250.344 102.683 250.599L102.293 250.959C102.102 250.757 101.881 250.607 101.631 250.503 101.381 250.399 101.115 250.348 100.83 250.348 100.419 250.348 100.053 250.439 99.7342 250.62 99.4161 250.801 99.1691 251.053 98.9919 251.377 98.8147 251.702 98.728 252.071 98.728 252.487 98.728 252.904 98.8166 253.274 98.9919 253.598 99.1672 253.923 99.4161 254.173 99.7342 254.356 100.053 254.537 100.419 254.627 100.83 254.627 101.115 254.627 101.386 254.575 101.647 254.469 101.906 254.364 102.136 254.212 102.337 254.016L102.713 254.392C102.468 254.642 102.183 254.831 101.861 254.961 101.539 255.091 101.19 255.155 100.816 255.155 100.302 255.155 99.8417 255.042 99.4387 254.818L99.4368 254.818Z" fill="#FFFFFF" fill-rule="nonzero" fill-opacity="1" transform="matrix(1.00132 0 0 1 485 231)"/><path d="M110.707 255.059 109.922 255.059 107.391 252.591 107.391 255.059 106.819 255.059 106.819 249.914 107.391 249.914 107.391 252.215 109.722 249.914 110.479 249.914 107.965 252.391 110.707 255.059Z" fill="#FFFFFF" fill-rule="nonzero" fill-opacity="1" transform="matrix(1.00132 0 0 1 485 231)"/><path d="M123.287 249.914 121.235 252.986 121.235 255.059 120.67 255.059 120.67 252.986 118.648 249.914 119.324 249.914 120.957 252.435 122.604 249.914 123.289 249.914 123.287 249.914Z" fill="#FFFFFF" fill-rule="nonzero" fill-opacity="1" transform="matrix(1.00132 0 0 1 485 231)"/><path d="M127.808 254.821C127.414 254.595 127.108 254.28 126.887 253.873 126.667 253.466 126.557 253.004 126.557 252.483 126.557 251.964 126.667 251.502 126.887 251.095 127.108 250.687 127.414 250.373 127.808 250.146 128.203 249.92 128.655 249.808 129.166 249.808 129.677 249.808 130.129 249.922 130.525 250.146 130.92 250.371 131.23 250.687 131.451 251.095 131.671 251.502 131.78 251.966 131.78 252.483 131.78 253.002 131.671 253.466 131.451 253.873 131.23 254.28 130.92 254.597 130.525 254.821 130.127 255.048 129.675 255.158 129.166 255.158 128.657 255.158 128.205 255.046 127.808 254.821ZM130.223 254.35C130.532 254.169 130.774 253.916 130.947 253.592 131.12 253.268 131.207 252.898 131.207 252.481 131.207 252.065 131.12 251.696 130.947 251.371 130.774 251.047 130.532 250.797 130.223 250.614 129.914 250.433 129.561 250.342 129.164 250.342 128.766 250.342 128.414 250.433 128.104 250.614 127.796 250.795 127.556 251.047 127.384 251.371 127.213 251.696 127.129 252.065 127.129 252.481 127.129 252.898 127.213 253.268 127.384 253.592 127.556 253.916 127.796 254.167 128.104 254.35 128.414 254.531 128.766 254.621 129.164 254.621 129.561 254.621 129.914 254.531 130.223 254.35Z" fill="#FFFFFF" fill-rule="nonzero" fill-opacity="1" transform="matrix(1.00132 0 0 1 485 231)"/><path d="M136.916 254.888C136.599 254.711 136.355 254.462 136.18 254.138 136.007 253.814 135.921 253.439 135.921 253.013L135.921 249.91 136.486 249.91 136.486 253.005C136.486 253.323 136.551 253.604 136.676 253.848 136.805 254.091 136.982 254.279 137.214 254.413 137.444 254.547 137.711 254.614 138.015 254.614 138.319 254.614 138.588 254.547 138.819 254.413 139.051 254.279 139.232 254.089 139.361 253.848 139.489 253.604 139.551 253.323 139.551 253.005L139.551 249.91 140.109 249.91 140.109 253.013C140.109 253.439 140.023 253.814 139.849 254.138 139.675 254.462 139.431 254.711 139.114 254.888 138.797 255.065 138.431 255.152 138.015 255.152 137.598 255.152 137.233 255.063 136.916 254.888Z" fill="#FFFFFF" fill-rule="nonzero" fill-opacity="1" transform="matrix(1.00132 0 0 1 485 231)"/><path d="M146.427 253.192 145.127 253.192 145.127 255.059 144.561 255.059 144.561 249.914 146.878 249.914C147.226 249.914 147.53 249.982 147.794 250.119 148.055 250.256 148.259 250.449 148.405 250.696 148.55 250.943 148.622 251.23 148.622 251.551 148.622 252.002 148.485 252.374 148.216 252.665 147.947 252.958 147.584 253.127 147.129 253.177L148.819 255.057 148.091 255.057 146.431 253.19 146.427 253.192ZM145.127 250.449 145.127 252.647 146.884 252.647C147.245 252.647 147.532 252.549 147.743 252.353 147.954 252.157 148.059 251.889 148.059 251.551 148.059 251.214 147.954 250.945 147.743 250.747 147.532 250.549 147.245 250.449 146.884 250.449L145.127 250.449Z" fill="#FFFFFF" fill-rule="nonzero" fill-opacity="1" transform="matrix(1.00132 0 0 1 485 231)"/><path d="M158.893 254.818C158.488 254.592 158.172 254.277 157.948 253.869 157.722 253.462 157.611 253.002 157.611 252.487 157.611 251.974 157.724 251.513 157.948 251.105 158.174 250.698 158.49 250.384 158.893 250.158 159.296 249.932 159.756 249.82 160.271 249.82 160.633 249.82 160.974 249.886 161.292 250.018 161.611 250.15 161.891 250.344 162.137 250.599L161.747 250.959C161.556 250.757 161.336 250.607 161.085 250.503 160.834 250.399 160.568 250.348 160.284 250.348 159.873 250.348 159.507 250.439 159.189 250.62 158.87 250.801 158.623 251.053 158.446 251.377 158.269 251.702 158.182 252.071 158.182 252.487 158.182 252.904 158.271 253.274 158.446 253.598 158.623 253.923 158.87 254.173 159.189 254.356 159.507 254.537 159.873 254.627 160.284 254.627 160.568 254.627 160.84 254.575 161.1 254.469 161.361 254.364 161.591 254.212 161.792 254.016L162.167 254.392C161.922 254.642 161.638 254.831 161.315 254.961 160.99 255.091 160.644 255.155 160.271 255.155 159.756 255.155 159.296 255.042 158.893 254.818Z" fill="#FFFFFF" fill-rule="nonzero" fill-opacity="1" transform="matrix(1.00132 0 0 1 485 231)"/><path d="M170.321 249.914 168.27 252.986 168.27 255.059 167.704 255.059 167.704 252.986 165.684 249.914 166.36 249.914 167.993 252.435 169.64 249.914 170.325 249.914 170.321 249.914Z" fill="#FFFFFF" fill-rule="nonzero" fill-opacity="1" transform="matrix(1.00132 0 0 1 485 231)"/><path d="M178.163 252.892C178.327 253.122 178.41 253.38 178.41 253.663 178.41 254.104 178.255 254.447 177.946 254.692 177.637 254.937 177.202 255.059 176.638 255.059L174.293 255.059 174.293 249.914 176.638 249.914C177.132 249.914 177.524 250.034 177.81 250.273 178.097 250.513 178.24 250.843 178.24 251.26 178.24 251.524 178.178 251.759 178.052 251.965 177.925 252.17 177.752 252.323 177.525 252.42 177.786 252.504 177.997 252.66 178.161 252.892L178.163 252.892ZM174.858 250.436 174.858 252.17 176.653 252.17C176.977 252.17 177.23 252.095 177.411 251.942 177.592 251.789 177.683 251.58 177.683 251.311 177.683 251.041 177.59 250.828 177.407 250.671 177.223 250.515 176.972 250.436 176.653 250.436L174.858 250.436ZM177.543 254.281C177.748 254.116 177.852 253.889 177.852 253.604 177.852 253.32 177.748 253.095 177.543 252.928 177.337 252.762 177.054 252.677 176.696 252.677L174.858 252.677 174.858 254.53 176.696 254.53C177.054 254.53 177.335 254.447 177.543 254.279L177.543 254.281Z" fill="#FFFFFF" fill-rule="nonzero" fill-opacity="1" transform="matrix(1.00132 0 0 1 485 231)"/><path d="M183.18 254.523 186.333 254.523 186.333 255.059 182.614 255.059 182.614 249.914 186.267 249.914 186.267 250.443 183.18 250.443 183.18 252.193 186.128 252.193 186.128 252.722 183.18 252.722 183.18 254.525 183.18 254.523Z" fill="#FFFFFF" fill-rule="nonzero" fill-opacity="1" transform="matrix(1.00132 0 0 1 485 231)"/><path d="M192.444 253.192 191.143 253.192 191.143 255.059 190.578 255.059 190.578 249.914 192.895 249.914C193.244 249.914 193.547 249.982 193.811 250.119 194.073 250.256 194.277 250.449 194.421 250.696 194.567 250.943 194.638 251.23 194.638 251.551 194.638 252.002 194.503 252.374 194.233 252.665 193.963 252.958 193.602 253.127 193.145 253.177L194.837 255.057 194.109 255.057 192.448 253.19 192.444 253.192ZM191.143 250.449 191.143 252.647 192.9 252.647C193.263 252.647 193.549 252.549 193.76 252.353 193.971 252.157 194.077 251.889 194.077 251.551 194.077 251.214 193.971 250.945 193.76 250.747 193.549 250.549 193.263 250.449 192.9 250.449L191.143 250.449Z" fill="#FFFFFF" fill-rule="nonzero" fill-opacity="1" transform="matrix(1.00132 0 0 1 485 231)"/><path d="M207.181 250.129C207.451 250.273 207.658 250.477 207.801 250.739 207.945 251.001 208.019 251.305 208.019 251.648 208.019 251.991 207.947 252.293 207.801 252.553 207.657 252.813 207.449 253.015 207.181 253.16 206.913 253.304 206.596 253.376 206.234 253.376L204.512 253.376 204.512 255.059 203.947 255.059 203.947 249.914 206.234 249.914C206.596 249.914 206.913 249.986 207.181 250.131L207.181 250.129ZM207.124 252.517C207.344 252.298 207.453 252.008 207.453 251.646 207.453 251.284 207.344 250.992 207.124 250.771 206.903 250.551 206.599 250.441 206.211 250.441L204.512 250.441 204.512 252.845 206.211 252.845C206.597 252.845 206.903 252.736 207.124 252.517Z" fill="#FFFFFF" fill-rule="nonzero" fill-opacity="1" transform="matrix(1.00132 0 0 1 485 231)"/><path d="M213.007 254.821C212.613 254.595 212.306 254.28 212.085 253.873 211.865 253.466 211.756 253.004 211.756 252.483 211.756 251.964 211.865 251.502 212.085 251.095 212.306 250.687 212.613 250.373 213.007 250.146 213.401 249.92 213.853 249.808 214.364 249.808 214.875 249.808 215.327 249.922 215.723 250.146 216.121 250.373 216.428 250.687 216.649 251.095 216.869 251.502 216.979 251.966 216.979 252.483 216.979 253.002 216.869 253.466 216.649 253.873 216.428 254.28 216.119 254.597 215.723 254.821 215.325 255.048 214.873 255.158 214.364 255.158 213.855 255.158 213.403 255.046 213.007 254.821ZM215.422 254.35C215.73 254.169 215.972 253.916 216.146 253.592 216.319 253.268 216.405 252.898 216.405 252.481 216.405 252.065 216.319 251.696 216.146 251.371 215.972 251.047 215.73 250.797 215.422 250.614 215.112 250.431 214.76 250.342 214.363 250.342 213.964 250.342 213.612 250.433 213.302 250.614 212.994 250.795 212.754 251.047 212.583 251.371 212.412 251.696 212.325 252.065 212.325 252.481 212.325 252.898 212.41 253.268 212.583 253.592 212.754 253.916 212.994 254.167 213.302 254.35 213.612 254.531 213.964 254.621 214.363 254.621 214.76 254.621 215.112 254.531 215.422 254.35Z" fill="#FFFFFF" fill-rule="nonzero" fill-opacity="1" transform="matrix(1.00132 0 0 1 485 231)"/><path d="M227.519 249.914 228.122 249.914 226.365 255.059 225.711 255.059 225.019 252.928 224.32 250.796 223.616 252.928 222.916 255.059 222.277 255.059 220.52 249.914 221.123 249.914 221.998 252.596 222.593 254.368 224.034 249.914 224.599 249.914 226.04 254.361 226.635 252.596 227.517 249.914 227.519 249.914Z" fill="#FFFFFF" fill-rule="nonzero" fill-opacity="1" transform="matrix(1.00132 0 0 1 485 231)"/><path d="M232.704 254.523 235.858 254.523 235.858 255.059 232.139 255.059 232.139 249.914 235.792 249.914 235.792 250.443 232.704 250.443 232.704 252.193 235.653 252.193 235.653 252.722 232.704 252.722 232.704 254.525 232.704 254.523Z" fill="#FFFFFF" fill-rule="nonzero" fill-opacity="1" transform="matrix(1.00132 0 0 1 485 231)"/><path d="M241.969 253.192 240.668 253.192 240.668 255.059 240.103 255.059 240.103 249.914 242.42 249.914C242.768 249.914 243.072 249.982 243.336 250.119 243.598 250.256 243.802 250.449 243.946 250.696 244.091 250.943 244.163 251.23 244.163 251.551 244.163 252.002 244.028 252.374 243.758 252.665 243.488 252.958 243.127 253.127 242.67 253.177L244.361 255.057 243.633 255.057 241.973 253.19 241.969 253.192ZM240.668 250.449 240.668 252.647 242.425 252.647C242.787 252.647 243.074 252.549 243.285 252.353 243.496 252.157 243.602 251.889 243.602 251.551 243.602 251.214 243.496 250.945 243.285 250.747 243.074 250.549 242.787 250.449 242.425 250.449L240.668 250.449Z" fill="#FFFFFF" fill-rule="nonzero" fill-opacity="1" transform="matrix(1.00132 0 0 1 485 231)"/><path d="M99.121 202.296C101.184 202.296 102.368 203.62 102.368 205.487 102.368 207.327 101.184 208.651 99.121 208.651L95.595 208.651 95.595 212.051 94.9818 212.051 94.9818 202.296 99.121 202.296ZM99.1071 208.065C100.835 208.065 101.769 207.006 101.769 205.473 101.769 203.94 100.835 202.881 99.1071 202.881L95.595 202.881 95.595 208.065 99.1071 208.065ZM111.497 212.218C108.612 212.218 106.577 210.142 106.577 207.173 106.577 204.205 108.612 202.128 111.497 202.128 114.382 202.128 116.416 204.205 116.416 207.173 116.416 210.142 114.382 212.218 111.497 212.218ZM111.497 211.633C114.019 211.633 115.803 209.793 115.803 207.173 115.803 204.553 114.019 202.714 111.497 202.714 108.974 202.714 107.19 204.553 107.19 207.173 107.19 209.793 108.974 211.633 111.497 211.633ZM133.711 202.296 134.366 202.296 130.965 212.051 130.254 212.051 128.721 207.355 127.342 203.146 125.948 207.355 124.387 212.051 123.676 212.051 120.331 202.296 120.987 202.296 124.025 211.299 126.993 202.296 127.69 202.296 130.617 211.299 131.885 207.619 133.711 202.296ZM139.857 211.466 146.114 211.466 146.114 212.051 139.243 212.051 139.243 202.296 145.933 202.296 145.933 202.881 139.857 202.881 139.857 206.825 145.64 206.825 145.64 207.41 139.857 207.41 139.857 211.466ZM158.173 212.051 154.717 208.302 151.888 208.302 151.888 212.051 151.275 212.051 151.275 202.296 155.497 202.296C157.407 202.296 158.661 203.508 158.661 205.306 158.661 207.104 157.421 208.288 155.511 208.302L158.968 212.051 158.173 212.051ZM158.048 205.306C158.048 203.843 157.072 202.895 155.497 202.895L151.888 202.895 151.888 207.717 155.497 207.717C157.072 207.717 158.048 206.769 158.048 205.306ZM164.532 211.466 170.79 211.466 170.79 212.051 163.919 212.051 163.919 202.296 170.609 202.296 170.609 202.881 164.532 202.881 164.532 206.825 170.316 206.825 170.316 207.41 164.532 207.41 164.532 211.466ZM179.212 202.296C182.138 202.296 184.173 204.288 184.173 207.173 184.173 210.058 182.138 212.051 179.212 212.051L175.95 212.051 175.95 202.296 179.212 202.296ZM179.212 211.452C181.776 211.452 183.56 209.696 183.56 207.173 183.56 204.651 181.762 202.895 179.212 202.895L176.564 202.895 176.564 211.452 179.212 211.452ZM201.576 207.062C202.719 207.424 203.415 208.316 203.415 209.445 203.415 211.062 202.189 212.051 200.168 212.051L195.918 212.051 195.918 202.296 200.168 202.296C201.924 202.296 203.067 203.299 203.067 204.818 203.067 205.849 202.496 206.741 201.576 207.062ZM202.468 204.846C202.468 203.633 201.59 202.881 200.168 202.881L196.531 202.881 196.531 206.783 200.168 206.783C201.618 206.783 202.468 206.058 202.468 204.846ZM200.196 211.466C201.827 211.466 202.802 210.699 202.802 209.417 202.802 208.149 201.799 207.368 200.196 207.368L196.531 207.368 196.531 211.466 200.196 211.466ZM215.334 202.296 211.488 208.163 211.488 212.051 210.875 212.051 210.875 208.163 207.042 202.296 207.767 202.296 211.181 207.564 214.596 202.296 215.334 202.296Z" fill="#FFFFFF" fill-rule="nonzero" fill-opacity="0.8" transform="matrix(1.00132 0 0 1 485 231)"/><path d="M195.489 31.7082C190.131 13.3645 173.623 0.762157 154.519 0.762157 135.415 0.762157 118.907 13.3645 113.549 31.7082 95.5891 32.3781 81.1853 47.3679 81.1853 65.7021 81.1853 84.0361 96.2653 99.7193 114.798 99.7193L194.24 99.7193C212.773 99.7193 227.852 84.462 227.852 65.7021 227.852 46.942 213.449 32.3781 195.493 31.7082L195.489 31.7082ZM194.24 93.5334 114.798 93.5334C99.6327 93.5334 87.2996 81.0506 87.2996 65.7021 87.2996 50.3534 99.6367 37.8707 114.798 37.8707L115.79 37.9232C116.457 37.9616 117.1 37.7463 117.63 37.3683 117.587 37.7701 117.545 38.1672 117.516 38.5692 117.006 45.7698 118.481 52.9418 121.796 59.3052L122.093 59.8792 125.348 56.5875 125.2 56.2813C122.619 50.9084 121.479 44.8943 121.904 38.8898 123.228 20.3164 138.938 6.26432 156.916 7.58005 174.9 8.89101 188.458 25.0673 187.134 43.6407 185.81 62.2141 170.091 76.2566 152.122 74.9505 147.502 74.6155 143.094 73.2998 139.027 71.0415L138.716 70.8692 135.499 74.1275 136.029 74.4385C140.891 77.3188 146.197 78.9837 151.804 79.3905 152.693 79.4526 153.573 79.4861 154.448 79.4861 173.728 79.4861 190.089 64.0705 191.522 43.9613 191.678 41.7365 191.64 39.5453 191.432 37.3969 191.948 37.7558 192.572 37.9568 193.248 37.9232L194.24 37.8707C209.401 37.8707 221.738 50.3534 221.738 65.7021 221.738 81.0506 209.401 93.5334 194.24 93.5334ZM160.454 41.3873C160.454 44.7699 157.744 47.5114 154.4 47.5114 153.568 47.5114 152.774 47.3391 152.05 47.0329L134.875 64.4485C134.875 64.4485 134.861 64.4628 134.852 64.4725L124.103 75.3762 124.765 79.132 115.039 88.8159 113.875 82.2372 107.392 80.955 117.119 71.2711 120.766 71.9936 132.445 60.1472C132.445 60.1472 132.459 60.1329 132.464 60.1281L148.754 43.6025C148.489 42.9135 148.338 42.1719 148.338 41.3873 148.338 38.0046 151.048 35.2631 154.392 35.2631 157.734 35.2631 160.444 38.0046 160.444 41.3873L160.454 41.3873ZM154.297 62.5873C153.819 62.5873 153.341 62.5682 152.859 62.5347 151.412 62.4294 149.97 62.1567 148.565 61.7309L147.808 61.5013 151.403 57.865 151.644 57.9081C152.155 57.999 152.665 58.0612 153.171 58.0994 157.418 58.4104 161.532 56.9512 164.766 53.9895 168.011 51.028 169.968 46.9181 170.289 42.4255 170.611 37.9328 169.249 33.5838 166.459 30.182 163.674 26.785 159.806 24.742 155.564 24.4358 146.783 23.7947 139.103 30.8279 138.446 40.105 138.379 41.0284 138.389 41.9662 138.465 42.8943L138.484 43.1144 134.691 46.9516 134.507 46.0999C134.058 44.0235 133.902 41.8992 134.053 39.7845 134.455 34.1148 136.947 28.9333 141.07 25.1918 145.198 21.4455 150.457 19.5987 155.876 19.9958 161.295 20.3929 166.237 22.9813 169.792 27.2873 173.344 31.5886 175.075 37.0812 174.673 42.7508 174.271 48.4205 171.779 53.602 167.655 57.3435 163.896 60.7549 159.196 62.5921 154.287 62.5921L154.297 62.5873Z" fill="url(#fill4)" fill-rule="nonzero" transform="matrix(1.00132 0 0 1 485 231)"/><path d="M15.7856 129.033C21.6477 129.033 25.4792 132.75 25.4792 138.382 25.4792 144.014 21.6477 147.731 15.7856 147.731L7.77785 147.731 7.77785 155.853 3.29505 155.853 3.29505 129.033 15.7856 129.033ZM15.5557 143.669C18.8507 143.669 21.0347 141.601 21.0347 138.382 21.0347 135.202 18.8507 133.133 15.5557 133.133L7.73954 133.133 7.73954 143.669 15.5557 143.669ZM64.6585 129.033 69.4478 129.033 60.4056 155.853 55.463 155.853 52.5128 146.697 49.0645 136.198 45.6161 146.697 42.6276 155.853 37.8 155.853 28.6428 129.033 33.4321 129.033 37.5318 141.984 40.2138 150.336 46.9955 129.033 51.0568 129.033 57.9151 150.221 60.5972 141.984 64.6585 129.033ZM93.6931 129.033 98.1759 129.033 98.1759 155.853 94.1146 155.853 79.6317 136.696 79.67 145.24 79.67 155.853 75.1872 155.853 75.1872 129.033 79.2485 129.033 93.7314 148.191 93.6931 140.183 93.6931 129.033ZM119.152 156.389C110.838 156.389 105.09 150.643 105.09 142.443 105.09 134.244 110.876 128.496 119.113 128.496 123.021 128.496 126.432 129.915 129.114 132.635L126.125 135.393C124.285 133.554 122.025 132.597 119.266 132.597 113.557 132.597 109.611 136.619 109.611 142.443 109.611 148.267 113.557 152.29 119.266 152.29 121.948 152.29 124.554 151.256 126.432 149.416L129.305 152.406C126.623 155.049 123.213 156.389 119.152 156.389ZM135.555 155.853 135.555 129.033 140.038 129.033 140.038 151.677 154.175 151.677 154.175 155.853 135.555 155.853ZM171.694 156.428C163.418 156.428 157.863 150.796 157.863 142.443 157.863 134.091 163.418 128.459 171.694 128.459 179.931 128.459 185.487 134.091 185.487 142.443 185.487 150.796 179.931 156.428 171.694 156.428ZM171.694 152.29C177.212 152.29 180.967 148.305 180.967 142.443 180.967 136.582 177.212 132.597 171.694 132.597 166.138 132.597 162.383 136.582 162.383 142.443 162.383 148.305 166.138 152.29 171.694 152.29ZM203.518 156.389C196.468 156.389 192.023 151.907 192.023 144.742L192.023 129.033 196.468 129.033 196.468 144.666C196.468 149.302 199.227 152.252 203.518 152.252 207.809 152.252 210.568 149.302 210.568 144.666L210.568 129.033 215.013 129.033 215.013 144.742C215.013 151.907 210.568 156.389 203.518 156.389ZM233.438 129.033C241.522 129.033 246.963 134.397 246.963 142.443 246.963 150.489 241.522 155.853 233.438 155.853L223.17 155.853 223.17 129.033 233.438 129.033ZM233.438 151.716C238.802 151.716 242.442 147.961 242.442 142.443 242.442 136.926 238.764 133.171 233.438 133.171L227.652 133.171 227.652 151.716 233.438 151.716ZM266.158 156.352C258.149 156.352 252.595 150.643 252.595 142.443 252.595 134.244 258.149 128.535 266.158 128.535 274.127 128.535 279.721 134.244 279.721 142.443 279.721 150.643 274.127 156.352 266.158 156.352ZM266.158 154.168C272.786 154.168 277.422 149.339 277.422 142.443 277.422 135.546 272.786 130.719 266.158 130.719 259.529 130.719 254.854 135.546 254.854 142.443 254.854 149.339 259.529 154.168 266.158 154.168ZM296.482 156.313C292.191 156.313 287.938 154.474 285.524 151.6L286.941 149.992C288.819 152.443 292.688 154.168 296.482 154.168 301.578 154.168 304.757 152.137 304.757 148.881 304.757 145.853 302.651 144.512 296.175 143.286 288.934 141.984 286.175 139.877 286.175 135.662 286.175 131.447 290.275 128.573 296.29 128.573 300.084 128.573 303.493 129.876 305.869 132.29L304.566 133.899C302.535 131.83 299.547 130.643 296.252 130.643 291.577 130.643 288.436 132.673 288.436 135.7 288.436 138.612 290.543 140.03 296.52 141.179 304.375 142.596 307.057 144.55 307.057 148.804 307.057 153.401 302.957 156.313 296.482 156.313Z" fill="#FFFFFF" fill-rule="nonzero" fill-opacity="0.9" transform="matrix(1.00132 0 0 1 485 231)"/></g></g></g></g></g></svg>