<?xml version="1.0" encoding="UTF-8"?><svg id="Layer_2" xmlns="http://www.w3.org/2000/svg" xmlns:xlink="http://www.w3.org/1999/xlink" viewBox="0 0 1344.14 206.83"><defs><style>.cls-1{fill:#fff;}.cls-2{fill:url(#New_Gradient_Swatch_3);}</style><linearGradient id="New_Gradient_Swatch_3" x1="10.56" y1="32.32" x2="375.75" y2="278.25" gradientUnits="userSpaceOnUse"><stop offset=".33" stop-color="#7303c0"/><stop offset=".49" stop-color="#ad1cbe"/><stop offset=".66" stop-color="#ec38bc"/><stop offset=".82" stop-color="#f494da"/><stop offset=".94" stop-color="#fad5f0"/><stop offset="1" stop-color="#fdeff9"/></linearGradient></defs><g id="Layer_1-2"><path class="cls-1" d="m415.83,124.78v28.63h-22.55V52.21h47.71c25.88,0,38.75,16.77,38.75,36.29s-13.01,36-38.75,36.29h-25.16Zm0-20.67h25.16c10.84,0,16.19-7.08,16.19-15.18s-5.49-15.32-16.19-15.32h-25.16v30.5Z"/><path class="cls-1" d="m599.73,153.26h-18.51l-21.69-56.53-20.96,56.53h-18.51l-37.73-101.06h25.3l12.58,34.55,9.11,32.67,22.7-67.23h14.75l23.71,67.23,8.67-32.53,12-34.7h25.3l-36.72,101.06Z"/><path class="cls-1" d="m718.85,117.99l-1.45-31.81v-33.97h22.7v101.2h-19.37l-50.31-64.77.87,33.25v31.52h-22.84V52.21h19.37l51.03,65.78Z"/><path class="cls-1" d="m839.71,153.41h-77.06V52.21h75.03v20.67h-52.91v19.52h49.88v19.81h-49.88v20.39h54.94v20.82Z"/><path class="cls-1" d="m898.99,52.21c34.84,0,50.31,23.42,50.31,49.88s-14.89,51.32-50.31,51.32h-41.49V52.21h41.49Zm-19.23,80.38h19.23c21.98,0,28.05-16.19,28.05-30.79s-6.94-29.2-28.05-29.2h-19.23v60Z"/><path class="cls-1" d="m997.03,52.13v93.83h56.96v7.37h-64.77V52.13h7.81Z"/><path class="cls-1" d="m1149.26,153.33l-11.13-24.87h-60.43l-10.99,24.87h-8.39l45.4-101.2h8.53l45.4,101.2h-8.39Zm-14.17-32.1l-27.18-61.59-27.18,61.59h54.36Z"/><path class="cls-1" d="m1243.96,79.75c0,10.41-6.36,18.51-16.48,21.69,12.72,3.47,19.95,13.73,19.95,25.44,0,20.82-19.37,26.46-36.72,26.46h-41.49V52.13h41.49c17.06,0,33.25,8.39,33.25,27.61Zm-66.94,18.22h34.7c12.14,0,24.87-3.76,24.87-18.22s-13.3-20.96-25.88-20.96h-33.69v39.18Zm0,47.85h33.69c12.72,0,29.06-3.04,29.06-19.08-.14-15.76-14.46-21.4-28.05-21.4h-34.7v40.48Z"/><path class="cls-1" d="m1334.75,71.65c-7.37-11.86-19.23-13.59-30.65-13.73-11.86,0-30.65,4.34-30.65,20.53,0,12.87,13.88,15.9,30.94,19.08,19.52,3.76,39.76,7.23,39.76,29.06-.14,22.84-23.13,28.34-40.05,28.34-15.76,0-33.69-6.51-41.49-21.98l6.94-3.47c6.22,12.29,22.12,18.36,34.55,18.36s32.24-3.47,32.24-21.4c.14-15.18-16.63-18.51-33.25-21.69-18.51-3.61-37.44-7.37-37.44-26.02-.43-21.4,21.83-28.05,38.46-28.05,14.46,0,27.03,2.31,37.01,17.2l-6.36,3.76Z"/><path class="cls-2" d="m241.72,64.68C230.39,26.34,195.48,0,155.08,0s-75.31,26.34-86.64,64.68C30.46,66.08,0,97.41,0,135.73s31.89,71.1,71.08,71.1h168c39.19,0,71.08-31.89,71.08-71.1s-30.46-69.65-68.43-71.05Zm-2.64,129.22H71.08c-32.07,0-58.15-26.09-58.15-58.17s26.09-58.17,58.15-58.17l2.1.11c1.41.08,2.77-.37,3.89-1.16-.09.84-.18,1.67-.24,2.51-1.08,15.05,2.04,30.04,9.05,43.34l.63,1.2,6.88-6.88-.31-.64c-5.46-11.23-7.87-23.8-6.97-36.35,2.8-38.82,36.02-68.19,74.04-65.44,38.03,2.74,66.7,36.55,63.9,75.37-2.8,38.82-36.04,68.17-74.04,65.44-9.77-.7-19.09-3.45-27.69-8.17l-.66-.36-6.8,6.81,1.12.65c10.28,6.02,21.5,9.5,33.36,10.35,1.88.13,3.74.2,5.59.2,40.77,0,75.37-32.22,78.4-74.25.33-4.65.25-9.23-.19-13.72,1.09.75,2.41,1.17,3.84,1.1l2.1-.11c32.06,0,58.15,26.09,58.15,58.17s-26.09,58.17-58.15,58.17Zm-71.45-108.99c0,7.07-5.73,12.8-12.8,12.8-1.76,0-3.44-.36-4.97-1l-36.32,36.4s-.03.03-.05.05l-22.73,22.79,1.4,7.85-20.57,20.24-2.46-13.75-13.71-2.68,20.57-20.24,7.71,1.51,24.7-24.76s.03-.03.04-.04l34.45-34.54c-.56-1.44-.88-2.99-.88-4.63,0-7.07,5.73-12.8,12.8-12.8s12.8,5.73,12.8,12.8Zm-13.02,44.31c-1.01,0-2.02-.04-3.04-.11-3.06-.22-6.11-.79-9.08-1.68l-1.6-.48,7.6-7.6.51.09c1.08.19,2.16.32,3.23.4,8.98.65,17.68-2.4,24.52-8.59,6.86-6.19,11-14.78,11.68-24.17.68-9.39-2.2-18.48-8.1-25.59-5.89-7.1-14.07-11.37-23.04-12.01-18.57-1.34-34.81,13.36-36.2,32.75-.14,1.93-.12,3.89.04,5.83l.04.46-8.02,8.02-.39-1.78c-.95-4.34-1.28-8.78-.96-13.2.85-11.85,6.12-22.68,14.84-30.5,8.73-7.83,19.85-11.69,31.31-10.86h0c11.46.83,21.91,6.24,29.43,15.24,7.51,8.99,11.17,20.47,10.32,32.32-.85,11.85-6.12,22.68-14.84,30.5-7.95,7.13-17.89,10.97-28.27,10.97Z"/></g></svg>